# xmcd
#
# Track frame offsets: 
#        150
#        11317
#        23333
#        34325
#        46451
#        67398
#        83517
#        96894
#        112608
#        135720
#        147307
#        159751
#        170262
#        186620
#        203490
#        229790
#        245212
#        261157
#
# Disc length: 3862 seconds
#
# Revision: 2
# Processed by: cddbd v1.5.1PL0 Copyright (c) Steve Scherf et al.
# Submitted via: ExactAudioCopy v0.95a5
#
DISCID=eb0f1412
DTITLE=Various Artist - Jazz and Blues Collection Complete CD 9
DYEAR=1900
DGENRE=blues
TTITLE0=John Lee Hooker - Boom Boom
TTITLE1=Elmore James - Mean Mistreatin' Mama
TTITLE2=Elmore Lames - Coming Home
TTITLE3=John Mayall - Lost And Gone
TTITLE4=Johnny Winter - Going Down Slow
TTITLE5=B.B. King - It's My Own Fault Baby
TTITLE6=John Lee Hooker - Baby Lee
TTITLE7=Lightnin' Hopkins - Coffee For Mama
TTITLE8=Brownie McGhee and Sonny Terry - Blues For The Lowlands
TTITLE9=Lightning Slim - Lightning's Bad Luck
TTITLE10=Jelly Roll Morton - Wolverine Blues
TTITLE11=Eric Clapton - West Coast Idea
TTITLE12=B.B. King - Outside Help (Short Version)
TTITLE13=Mississippi John Hurt - Lonesome Blues
TTITLE14=Big mama Thornton - Little red Rooster
TTITLE15=Big Joe Williams - Baby Please Don't Go
TTITLE16=Mississippi John Hurt - Hot Time In The Old Town Tonight
TTITLE17=Eddy Wilsons Blues Band and Friends - Big Log
EXTD=
EXTT0=
EXTT1=
EXTT2=
EXTT3=
EXTT4=
EXTT5=
EXTT6=
EXTT7=
EXTT8=
EXTT9=
EXTT10=
EXTT11=
EXTT12=
EXTT13=
EXTT14=
EXTT15=
EXTT16=
EXTT17=
PLAYORDER=
